<svg width="170" height="52" viewBox="0 0 170 52" fill="none" xmlns="http://www.w3.org/2000/svg">
<rect x="1" y="1" width="168" height="50" rx="15" fill="url(#paint0_linear_501_6750)"/>
<rect x="1" y="1" width="168" height="50" rx="15" stroke="url(#paint1_linear_501_6750)" stroke-width="2"/>
<path d="M40.7381 24.808C40.7038 21.0837 43.8658 19.2718 44.0104 19.1874C42.2196 16.6417 39.4439 16.2939 38.4685 16.2662C36.1372 16.027 33.8759 17.6263 32.6884 17.6263C31.4771 17.6263 29.6484 16.2893 27.6774 16.3286C25.1411 16.3667 22.7684 17.7984 21.467 20.0217C18.7814 24.555 20.7844 31.2167 23.3574 34.881C24.6445 36.6756 26.1485 38.6793 28.1171 38.6088C30.043 38.5314 30.7624 37.4117 33.0866 37.4117C35.3894 37.4117 36.0649 38.6088 38.0727 38.5638C40.1396 38.5314 41.4409 36.7611 42.683 34.9503C44.1704 32.8935 44.7678 30.8678 44.7915 30.7638C44.7429 30.7476 40.7772 29.2719 40.7381 24.808Z" fill="white"/>
<path d="M36.9455 13.8557C37.9814 12.5927 38.6901 10.8743 38.4934 9.13062C36.9941 9.19533 35.1192 10.1417 34.0395 11.377C33.0842 12.4655 32.2309 14.2497 32.4513 15.9276C34.1355 16.0501 35.8647 15.0991 36.9455 13.8557Z" fill="white"/>
<path d="M68.6101 38.3511H65.9185L64.4442 33.8341H59.3194L57.915 38.3511H55.2946L60.3719 22.973H63.5079L68.6101 38.3511ZM63.9997 31.939L62.6664 27.9234C62.5254 27.5132 62.2611 26.5471 61.8711 25.0264H61.8237C61.6685 25.6805 61.4184 26.6465 61.0747 27.9234L59.7651 31.939H63.9997Z" fill="white"/>
<path d="M81.6673 32.6705C81.6673 34.5563 81.1446 36.047 80.0993 37.1413C79.163 38.1154 78.0003 38.6019 76.6125 38.6019C75.1144 38.6019 74.0382 38.0773 73.3828 37.0281H73.3354V42.8694H70.8086V30.9129C70.8086 29.7273 70.7766 28.5105 70.715 27.2625H72.9372L73.0783 29.0201H73.1257C73.9683 27.6958 75.2471 27.0348 76.9633 27.0348C78.3049 27.0348 79.4249 27.5513 80.3209 28.5856C81.2193 29.6209 81.6673 30.9822 81.6673 32.6705ZM79.0931 32.7606C79.0931 31.6813 78.8442 30.7915 78.344 30.0913C77.7977 29.3609 77.064 28.9958 76.1443 28.9958C75.5209 28.9958 74.9544 29.1992 74.4483 29.6001C73.9411 30.0046 73.6092 30.5327 73.454 31.1867C73.3757 31.4918 73.3366 31.7414 73.3366 31.9378V33.7867C73.3366 34.5933 73.5903 35.2739 74.0975 35.8297C74.6048 36.3856 75.2637 36.6629 76.0744 36.6629C77.0261 36.6629 77.7668 36.3047 78.2966 35.5905C78.8276 34.8753 79.0931 33.9323 79.0931 32.7606Z" fill="white"/>
<path d="M94.7482 32.6705C94.7482 34.5563 94.2255 36.047 93.179 37.1413C92.2439 38.1154 91.0812 38.6019 89.6934 38.6019C88.1953 38.6019 87.1192 38.0773 86.4649 37.0281H86.4175V42.8694H83.8907V30.9129C83.8907 29.7273 83.8587 28.5105 83.7971 27.2625H86.0193L86.1603 29.0201H86.2077C87.0492 27.6958 88.3281 27.0348 90.0454 27.0348C91.3858 27.0348 92.5058 27.5513 93.4042 28.5856C94.299 29.6209 94.7482 30.9822 94.7482 32.6705ZM92.174 32.7606C92.174 31.6813 91.9239 30.7915 91.4238 30.0913C90.8774 29.3609 90.1461 28.9958 89.2252 28.9958C88.6006 28.9958 88.0353 29.1992 87.5281 29.6001C87.0208 30.0046 86.6901 30.5327 86.5349 31.1867C86.4578 31.4918 86.4175 31.7414 86.4175 31.9378V33.7867C86.4175 34.5933 86.6712 35.2739 87.176 35.8297C87.6833 36.3844 88.3423 36.6629 89.1553 36.6629C90.107 36.6629 90.8478 36.3047 91.3775 35.5905C91.9085 34.8753 92.174 33.9323 92.174 32.7606Z" fill="white"/>
<path d="M109.373 34.0386C109.373 35.3467 108.908 36.411 107.972 37.2326C106.945 38.1304 105.514 38.5788 103.676 38.5788C101.979 38.5788 100.618 38.2599 99.5885 37.6208L100.174 35.5674C101.283 36.2215 102.5 36.5497 103.827 36.5497C104.778 36.5497 105.519 36.3393 106.051 35.921C106.581 35.5027 106.845 34.9411 106.845 34.2409C106.845 33.6168 106.627 33.0911 106.19 32.6647C105.755 32.2383 105.028 31.8419 104.014 31.4756C101.252 30.4714 99.8729 29.0004 99.8729 27.066C99.8729 25.8018 100.356 24.7653 101.325 23.9587C102.29 23.151 103.577 22.7477 105.186 22.7477C106.621 22.7477 107.814 22.9915 108.765 23.478L108.134 25.4864C107.245 25.0149 106.24 24.7792 105.115 24.7792C104.226 24.7792 103.532 24.9929 103.034 25.4182C102.613 25.7984 102.402 26.2617 102.402 26.8106C102.402 27.4184 102.643 27.9211 103.126 28.3163C103.547 28.6815 104.311 29.0767 105.421 29.5031C106.778 30.0358 107.775 30.6586 108.416 31.3728C109.055 32.0846 109.373 32.9755 109.373 34.0386Z" fill="white"/>
<path d="M117.728 29.1113H114.943V34.495C114.943 35.8644 115.433 36.5485 116.417 36.5485C116.868 36.5485 117.243 36.5103 117.539 36.4341L117.609 38.3049C117.111 38.4863 116.456 38.5776 115.644 38.5776C114.646 38.5776 113.866 38.2806 113.303 37.6878C112.743 37.0939 112.461 36.0978 112.461 34.6984V29.109H110.802V27.2601H112.461V25.2298L114.943 24.4995V27.2601H117.728V29.1113Z" fill="white"/>
<path d="M130.294 32.7155C130.294 34.4199 129.794 35.8193 128.796 36.9136C127.75 38.0403 126.361 38.6019 124.629 38.6019C122.96 38.6019 121.632 38.0623 120.641 36.983C119.65 35.9037 119.155 34.5413 119.155 32.8992C119.155 31.1809 119.664 29.7735 120.687 28.6791C121.708 27.5837 123.085 27.0359 124.816 27.0359C126.485 27.0359 127.828 27.5756 128.841 28.656C129.811 29.7041 130.294 31.0573 130.294 32.7155ZM127.673 32.7952C127.673 31.7726 127.449 30.8955 126.995 30.164C126.465 29.2789 125.708 28.8375 124.726 28.8375C123.711 28.8375 122.939 29.28 122.409 30.164C121.955 30.8967 121.731 31.7876 121.731 32.8415C121.731 33.8641 121.955 34.7412 122.409 35.4715C122.956 36.3567 123.719 36.7981 124.704 36.7981C125.668 36.7981 126.426 36.3474 126.972 35.4484C127.438 34.7031 127.673 33.8167 127.673 32.7952Z" fill="white"/>
<path d="M138.508 29.4291C138.258 29.3841 137.991 29.3609 137.711 29.3609C136.822 29.3609 136.135 29.688 135.651 30.3432C135.231 30.9209 135.02 31.6513 135.02 32.5329V38.3512H132.494L132.518 30.7545C132.518 29.4765 132.486 28.3129 132.423 27.2636H134.624L134.716 29.3852H134.786C135.053 28.6561 135.474 28.069 136.05 27.6288C136.612 27.2324 137.22 27.0348 137.876 27.0348C138.109 27.0348 138.32 27.051 138.508 27.0799V29.4291Z" fill="white"/>
<path d="M149.808 32.2822C149.808 32.7236 149.779 33.0957 149.716 33.3996H142.135C142.165 34.4951 142.531 35.3328 143.235 35.9106C143.874 36.4271 144.7 36.686 145.715 36.686C146.837 36.686 147.861 36.5115 148.782 36.1614L149.178 37.8716C148.102 38.3292 146.831 38.5568 145.365 38.5568C143.602 38.5568 142.217 38.0507 141.21 37.0396C140.205 36.0285 139.701 34.6707 139.701 32.9674C139.701 31.2953 140.169 29.9029 141.107 28.7924C142.088 27.6068 143.414 27.014 145.083 27.014C146.722 27.014 147.963 27.6068 148.806 28.7924C149.473 29.7342 149.808 30.899 149.808 32.2822ZM147.399 31.6431C147.415 30.9128 147.251 30.2819 146.908 29.7492C146.471 29.0639 145.799 28.7219 144.895 28.7219C144.068 28.7219 143.396 29.0559 142.883 29.7261C142.463 30.2588 142.212 30.8978 142.135 31.642H147.399V31.6431Z" fill="white"/>
<path d="M63.1642 13.5125C63.1642 14.8726 62.7458 15.8964 61.9103 16.584C61.1364 17.2184 60.0365 17.5362 58.6119 17.5362C57.9055 17.5362 57.3011 17.5061 56.795 17.446V10.0147C57.4552 9.91066 58.1663 9.8575 58.9343 9.8575C60.2913 9.8575 61.3141 10.1452 62.0039 10.7207C62.7767 11.3713 63.1642 12.3015 63.1642 13.5125ZM61.8546 13.546C61.8546 12.6643 61.6152 11.9883 61.1364 11.5169C60.6575 11.0466 59.9583 10.8108 59.0374 10.8108C58.6463 10.8108 58.3132 10.8363 58.0371 10.8894V16.5389C58.19 16.562 58.4697 16.5724 58.8762 16.5724C59.8267 16.5724 60.5604 16.3147 61.0771 15.7994C61.5938 15.284 61.8546 14.5329 61.8546 13.546Z" fill="white"/>
<path d="M70.1082 14.7004C70.1082 15.5382 69.8629 16.2246 69.3722 16.7631C68.8579 17.3166 68.1764 17.5928 67.3254 17.5928C66.5053 17.5928 65.8522 17.3282 65.3651 16.7966C64.8792 16.2662 64.6362 15.5971 64.6362 14.7906C64.6362 13.947 64.8863 13.2548 65.3888 12.7175C65.8913 12.1802 66.5669 11.9109 67.4179 11.9109C68.238 11.9109 68.897 12.1755 69.3959 12.7059C69.87 13.2213 70.1082 13.8869 70.1082 14.7004ZM68.8199 14.7397C68.8199 14.237 68.7085 13.806 68.4869 13.4466C68.2262 13.0122 67.8552 12.7949 67.3728 12.7949C66.8739 12.7949 66.4946 13.0122 66.2339 13.4466C66.011 13.806 65.9008 14.244 65.9008 14.7617C65.9008 15.2643 66.0122 15.6954 66.2339 16.0547C66.5029 16.4892 66.8774 16.7065 67.361 16.7065C67.835 16.7065 68.2072 16.4858 68.475 16.0432C68.705 15.6769 68.8199 15.2424 68.8199 14.7397Z" fill="white"/>
<path d="M79.419 12.0218L77.6709 17.4691H76.5331L75.809 15.1037C75.6253 14.5132 75.4759 13.9262 75.3598 13.3438H75.3373C75.2294 13.9424 75.0801 14.5282 74.8881 15.1037L74.1189 17.4691H72.9681L71.3242 12.0218H72.6007L73.2324 14.6114C73.3853 15.2239 73.5109 15.8074 73.6116 16.3598H73.6341C73.7266 15.9045 73.8795 15.3244 74.0952 14.623L74.8881 12.023H75.9002L76.6599 14.5675C76.8436 15.1881 76.993 15.7855 77.1079 16.361H77.1423C77.2264 15.8005 77.3533 15.2031 77.5216 14.5675L78.1995 12.023H79.419V12.0218Z" fill="white"/>
<path d="M85.8581 17.4691H84.6161V14.3491C84.6161 13.3877 84.2416 12.907 83.4902 12.907C83.1216 12.907 82.8241 13.0387 82.593 13.3034C82.3642 13.568 82.2481 13.88 82.2481 14.2371V17.468H81.006V13.5784C81.006 13.1 80.9906 12.5811 80.961 12.0195H82.0525L82.1106 12.8712H82.145C82.2896 12.6066 82.5053 12.3882 82.7885 12.2137C83.1251 12.0103 83.502 11.9075 83.9144 11.9075C84.4359 11.9075 84.8697 12.0715 85.2146 12.4009C85.6436 12.8042 85.8581 13.4062 85.8581 14.2059V17.4691Z" fill="white"/>
<path d="M89.2833 17.4691H88.0425V9.52238H89.2833V17.4691Z" fill="white"/>
<path d="M96.5959 14.7004C96.5959 15.5382 96.3506 16.2246 95.8599 16.7631C95.3455 17.3166 94.6629 17.5928 93.8131 17.5928C92.9918 17.5928 92.3387 17.3282 91.8528 16.7966C91.3669 16.2662 91.1239 15.5971 91.1239 14.7906C91.1239 13.947 91.374 13.2548 91.8765 12.7175C92.379 12.1802 93.0546 11.9109 93.9044 11.9109C94.7257 11.9109 95.3835 12.1755 95.8836 12.7059C96.3577 13.2213 96.5959 13.8869 96.5959 14.7004ZM95.3064 14.7397C95.3064 14.237 95.195 13.806 94.9734 13.4466C94.7138 13.0122 94.3417 12.7949 93.8605 12.7949C93.3604 12.7949 92.9811 13.0122 92.7215 13.4466C92.4987 13.806 92.3885 14.244 92.3885 14.7617C92.3885 15.2643 92.4999 15.6954 92.7215 16.0547C92.9906 16.4892 93.3651 16.7065 93.8487 16.7065C94.3227 16.7065 94.6937 16.4858 94.9615 16.0432C95.1926 15.6769 95.3064 15.2424 95.3064 14.7397Z" fill="white"/>
<path d="M102.607 17.4691H101.492L101.399 16.8417H101.365C100.983 17.342 100.439 17.5928 99.7331 17.5928C99.2057 17.5928 98.779 17.4275 98.4578 17.0994C98.1663 16.8012 98.0205 16.4303 98.0205 15.99C98.0205 15.3244 98.305 14.8171 98.8774 14.4658C99.4487 14.1146 100.252 13.9424 101.287 13.9505V13.8488C101.287 13.1312 100.901 12.773 100.127 12.773C99.5755 12.773 99.0896 12.9082 98.67 13.1762L98.4175 12.3812C98.9367 12.0681 99.5779 11.9109 100.334 11.9109C101.794 11.9109 102.527 12.662 102.527 14.1642V16.1703C102.527 16.7146 102.554 17.1479 102.607 17.4691ZM101.318 15.5971V14.757C99.9476 14.7339 99.2626 15.1002 99.2626 15.8548C99.2626 16.1391 99.3408 16.3517 99.5008 16.4938C99.6608 16.636 99.8647 16.7065 100.108 16.7065C100.38 16.7065 100.635 16.6221 100.867 16.4546C101.101 16.2858 101.244 16.0721 101.298 15.8098C101.311 15.7508 101.318 15.6792 101.318 15.5971Z" fill="white"/>
<path d="M109.665 17.4691H108.563L108.505 16.5944H108.47C108.118 17.26 107.519 17.5928 106.676 17.5928C106.003 17.5928 105.442 17.3351 104.998 16.8197C104.553 16.3043 104.332 15.6353 104.332 14.8137C104.332 13.932 104.572 13.2178 105.056 12.6724C105.524 12.164 106.098 11.9098 106.78 11.9098C107.53 11.9098 108.055 12.1559 108.354 12.6493H108.378V9.52238H109.621V16.0016C109.621 16.532 109.635 17.0208 109.665 17.4691ZM108.378 15.1719V14.2636C108.378 14.1065 108.366 13.9794 108.343 13.8823C108.274 13.5911 108.123 13.3461 107.894 13.1485C107.663 12.9509 107.385 12.8515 107.063 12.8515C106.6 12.8515 106.237 13.0306 105.971 13.39C105.706 13.7494 105.573 14.2082 105.573 14.7686C105.573 15.3071 105.699 15.7439 105.954 16.0802C106.223 16.4384 106.586 16.6175 107.04 16.6175C107.447 16.6175 107.773 16.4684 108.021 16.1691C108.261 15.893 108.378 15.5602 108.378 15.1719Z" fill="white"/>
<path d="M120.288 14.7004C120.288 15.5382 120.042 16.2246 119.552 16.7631C119.037 17.3166 118.357 17.5928 117.505 17.5928C116.686 17.5928 116.033 17.3282 115.545 16.7966C115.059 16.2662 114.816 15.5971 114.816 14.7906C114.816 13.947 115.066 13.2548 115.568 12.7175C116.071 12.1802 116.746 11.9109 117.599 11.9109C118.418 11.9109 119.078 12.1755 119.575 12.7059C120.05 13.2213 120.288 13.8869 120.288 14.7004ZM119.001 14.7397C119.001 14.237 118.889 13.806 118.668 13.4466C118.406 13.0122 118.036 12.7949 117.552 12.7949C117.055 12.7949 116.675 13.0122 116.413 13.4466C116.191 13.806 116.08 14.244 116.08 14.7617C116.08 15.2643 116.192 15.6954 116.413 16.0547C116.682 16.4892 117.057 16.7065 117.541 16.7065C118.015 16.7065 118.388 16.4858 118.656 16.0432C118.885 15.6769 119.001 15.2424 119.001 14.7397Z" fill="white"/>
<path d="M126.966 17.4691H125.725V14.3491C125.725 13.3877 125.351 12.907 124.598 12.907C124.23 12.907 123.932 13.0387 123.702 13.3034C123.472 13.568 123.357 13.88 123.357 14.2371V17.468H122.114V13.5784C122.114 13.1 122.1 12.5811 122.07 12.0195H123.161L123.219 12.8712H123.253C123.399 12.6066 123.615 12.3882 123.897 12.2137C124.234 12.0103 124.61 11.9075 125.024 11.9075C125.544 11.9075 125.978 12.0715 126.323 12.4009C126.753 12.8042 126.966 13.4062 126.966 14.2059V17.4691Z" fill="white"/>
<path d="M135.325 12.929H133.958V15.5752C133.958 16.2477 134.201 16.584 134.682 16.584C134.905 16.584 135.09 16.5655 135.235 16.5274L135.267 17.446C135.022 17.5362 134.7 17.5812 134.303 17.5812C133.812 17.5812 133.43 17.4356 133.154 17.1444C132.877 16.8532 132.739 16.3633 132.739 15.6757V12.929H131.923V12.0218H132.739V11.0234L133.957 10.6652V12.0207H135.324V12.929H135.325Z" fill="white"/>
<path d="M141.901 17.4691H140.658V14.3722C140.658 13.3958 140.283 12.907 139.533 12.907C138.957 12.907 138.563 13.1901 138.348 13.7563C138.311 13.8754 138.29 14.021 138.29 14.192V17.468H137.049V9.52238H138.29V12.8053H138.313C138.704 12.2079 139.265 11.9098 139.991 11.9098C140.506 11.9098 140.931 12.0738 141.269 12.4032C141.69 12.8134 141.901 13.4235 141.901 14.2301V17.4691Z" fill="white"/>
<path d="M148.684 14.4878C148.684 14.705 148.667 14.8876 148.637 15.0367H144.912C144.929 15.5752 145.107 15.9854 145.452 16.2697C145.767 16.5239 146.173 16.651 146.671 16.651C147.222 16.651 147.725 16.5655 148.178 16.3933L148.372 17.2346C147.842 17.4587 147.219 17.5708 146.497 17.5708C145.632 17.5708 144.95 17.3224 144.457 16.8255C143.962 16.3286 143.717 15.6618 143.717 14.8252C143.717 14.0036 143.945 13.3195 144.406 12.7741C144.887 12.1917 145.538 11.9005 146.359 11.9005C147.163 11.9005 147.773 12.1917 148.186 12.7741C148.519 13.2363 148.684 13.8083 148.684 14.4878ZM147.498 14.1746C147.508 13.8153 147.426 13.5056 147.258 13.2444C147.042 12.9082 146.714 12.7394 146.269 12.7394C145.864 12.7394 145.533 12.9035 145.281 13.2329C145.075 13.4952 144.953 13.8083 144.912 14.1746H147.498Z" fill="white"/>
<defs>
<linearGradient id="paint0_linear_501_6750" x1="85.3776" y1="51.5067" x2="85.3776" y2="-3.60067e-07" gradientUnits="userSpaceOnUse">
<stop stop-color="#171717"/>
<stop offset="1" stop-color="#666766"/>
</linearGradient>
<linearGradient id="paint1_linear_501_6750" x1="85.3509" y1="51.5067" x2="85.3509" y2="7.84126e-07" gradientUnits="userSpaceOnUse">
<stop stop-color="#171717"/>
<stop offset="1" stop-color="#8E8E8E"/>
</linearGradient>
</defs>
</svg>
