<svg width="170" height="52" viewBox="0 0 170 52" fill="none" xmlns="http://www.w3.org/2000/svg">
<rect x="1" y="1" width="168" height="50" rx="15" fill="url(#paint0_linear_501_6749)"/>
<rect x="1" y="1" width="168" height="50" rx="15" stroke="url(#paint1_linear_501_6749)" stroke-width="2"/>
<path d="M60.73 14.1654C60.73 15.1317 60.4337 15.9055 59.85 16.4826C59.1789 17.1668 58.3048 17.511 57.2337 17.511C56.21 17.511 55.3359 17.161 54.6189 16.4711C53.9004 15.771 53.5418 14.9118 53.5418 13.8834C53.5418 12.855 53.9004 11.9958 54.6189 11.3015C55.3359 10.6058 56.21 10.2557 57.2337 10.2557C57.7433 10.2557 58.2292 10.3584 58.6929 10.5494C59.1552 10.7417 59.5315 11.0021 59.8041 11.3232L59.1848 11.9336C58.7092 11.3854 58.0618 11.1149 57.2337 11.1149C56.487 11.1149 55.8396 11.3695 55.29 11.883C54.7463 12.3979 54.4737 13.0647 54.4737 13.8834C54.4737 14.7021 54.7463 15.3747 55.29 15.8896C55.8396 16.3973 56.487 16.6576 57.2337 16.6576C58.0263 16.6576 58.693 16.3973 59.2189 15.8838C59.5655 15.5439 59.7626 15.0753 59.8144 14.4764H57.2337V13.6404H60.6767C60.7181 13.8212 60.73 13.9962 60.73 14.1654Z" fill="white"/>
<path d="M66.1912 11.2664H62.9571V13.465H65.8727V14.3011H62.9571V16.4996H66.1912V17.3516H62.0416V10.4145H66.1912V11.2664Z" fill="white"/>
<path d="M70.0462 17.3516H69.1307V11.2664H67.147V10.4145H72.0314V11.2664H70.0462V17.3516Z" fill="white"/>
<path d="M75.5683 17.3516V10.4145H76.4824V17.3516H75.5683Z" fill="white"/>
<path d="M80.5321 17.3516H79.6239V11.2665H77.6328V10.4145H82.5232V11.2665H80.5321V17.3516Z" fill="white"/>
<path d="M91.7714 16.4595C91.0707 17.161 90.2025 17.511 89.167 17.511C88.1255 17.511 87.2574 17.161 86.5566 16.4595C85.8574 15.7594 85.5092 14.9002 85.5092 13.8834C85.5092 12.8665 85.8574 12.0074 86.5566 11.3073C87.2574 10.6058 88.1255 10.2557 89.167 10.2557C90.1966 10.2557 91.0648 10.6058 91.7655 11.3131C92.4707 12.0189 92.8188 12.8723 92.8188 13.8834C92.8188 14.9002 92.4707 15.7594 91.7714 16.4595ZM87.2337 15.878C87.7611 16.3973 88.4025 16.6576 89.167 16.6576C89.9255 16.6576 90.5729 16.3973 91.0944 15.878C91.6203 15.3588 91.887 14.6919 91.887 13.8834C91.887 13.0748 91.6203 12.408 91.0944 11.8888C90.5729 11.3695 89.9255 11.1091 89.167 11.1091C88.4025 11.1091 87.7611 11.3695 87.2337 11.8888C86.7077 12.408 86.4411 13.0748 86.4411 13.8834C86.4411 14.6919 86.7077 15.3588 87.2337 15.878Z" fill="white"/>
<path d="M94.1021 17.3516V10.4145H95.2133L98.6681 15.8097H98.7081L98.6681 14.4761V10.4145H99.5822V17.3516H98.6281L95.0103 11.6903H94.9703L95.0103 13.0296V17.3516H94.1021Z" fill="white"/>
<path d="M85.2832 27.4824C82.4995 27.4824 80.2254 29.5508 80.2254 32.4046C80.2254 35.2352 82.4995 37.3253 85.2832 37.3253C88.0728 37.3253 90.3469 35.2352 90.3469 32.4046C90.3469 29.5508 88.0728 27.4824 85.2832 27.4824ZM85.2832 35.3871C83.7558 35.3871 82.4417 34.1562 82.4417 32.4046C82.4417 30.6298 83.7558 29.4206 85.2832 29.4206C86.8106 29.4206 88.1306 30.6298 88.1306 32.4046C88.1306 34.1562 86.8106 35.3871 85.2832 35.3871ZM74.2477 27.4824C71.458 27.4824 69.1899 29.5508 69.1899 32.4046C69.1899 35.2352 71.458 37.3253 74.2477 37.3253C77.0358 37.3253 79.3054 35.2352 79.3054 32.4046C79.3054 29.5508 77.0358 27.4824 74.2477 27.4824ZM74.2477 35.3871C72.7188 35.3871 71.4003 34.1562 71.4003 32.4046C71.4003 30.6298 72.7188 29.4206 74.2477 29.4206C75.7751 29.4206 77.0892 30.6298 77.0892 32.4046C77.0892 34.1562 75.7751 35.3871 74.2477 35.3871ZM61.1158 28.991V31.0825H66.2314C66.0817 32.2513 65.6817 33.1104 65.0684 33.7093C64.3217 34.4325 63.1588 35.2352 61.1158 35.2352C57.9677 35.2352 55.5025 32.7546 55.5025 29.681C55.5025 26.6073 57.9677 24.1267 61.1158 24.1267C62.818 24.1267 64.0566 24.7761 64.9706 25.6179L66.4803 24.144C65.2017 22.9521 63.501 22.0366 61.1158 22.0366C56.7988 22.0366 53.1706 25.466 53.1706 29.681C53.1706 33.8959 56.7988 37.3253 61.1158 37.3253C63.4492 37.3253 65.2017 36.579 66.5795 35.1788C67.9914 33.8004 68.4314 31.8622 68.4314 30.2971C68.4314 29.8111 68.3899 29.3642 68.3158 28.991H61.1158ZM114.814 30.6125C114.397 29.5117 113.113 27.4824 110.497 27.4824C107.904 27.4824 105.745 29.477 105.745 32.4046C105.745 35.1615 107.882 37.3253 110.745 37.3253C113.061 37.3253 114.397 35.9469 114.947 35.1441L113.228 34.026C112.655 34.8447 111.874 35.3871 110.745 35.3871C109.624 35.3871 108.82 34.8852 108.304 33.8959L115.046 31.1722L114.814 30.6125ZM107.94 32.2513C107.882 30.3535 109.449 29.3815 110.572 29.3815C111.452 29.3815 112.199 29.8111 112.448 30.4259L107.94 32.2513ZM102.46 37.0259H104.676V22.5616H102.46V37.0259ZM98.8299 28.5788H98.7558C98.258 28.0031 97.3084 27.4824 96.1054 27.4824C93.581 27.4824 91.2729 29.6462 91.2729 32.4205C91.2729 35.1788 93.581 37.3253 96.1054 37.3253C97.3084 37.3253 98.258 36.8003 98.7558 36.2073H98.8299V36.9131C98.8299 38.7949 97.8003 39.806 96.1395 39.806C94.7854 39.806 93.9454 38.8513 93.5988 38.0486L91.6714 38.834C92.2269 40.1387 93.698 41.7442 96.1395 41.7442C98.738 41.7442 100.931 40.2515 100.931 36.6195V27.7818H98.8299V28.5788ZM96.2951 35.3871C94.7677 35.3871 93.4891 34.1389 93.4891 32.4205C93.4891 30.6862 94.7677 29.4206 96.2951 29.4206C97.8003 29.4206 98.9869 30.6862 98.9869 32.4205C98.9869 34.1389 97.8003 35.3871 96.2951 35.3871ZM125.19 22.5616H119.889V37.0259H122.1V31.5454H125.19C127.645 31.5454 130.052 29.8111 130.052 27.0528C130.052 24.2959 127.639 22.5616 125.19 22.5616ZM125.248 29.5334H122.1V24.5736H125.248C126.898 24.5736 127.84 25.9115 127.84 27.0528C127.84 28.1723 126.898 29.5334 125.248 29.5334ZM138.911 27.4549C137.314 27.4549 135.654 28.1434 134.971 29.6694L136.932 30.4721C137.354 29.6694 138.131 29.409 138.951 29.409C140.098 29.409 141.261 30.0816 141.279 31.2691V31.421C140.879 31.1954 140.022 30.8612 138.969 30.8612C136.857 30.8612 134.704 31.9967 134.704 34.1157C134.704 36.0539 136.434 37.3022 138.38 37.3022C139.867 37.3022 140.688 36.647 141.203 35.8847H141.279V37.0028H143.414V31.4543C143.414 28.8898 141.452 27.4549 138.911 27.4549ZM138.645 35.3813C137.922 35.3813 136.914 35.0313 136.914 34.1562C136.914 33.0367 138.171 32.6071 139.258 32.6071C140.231 32.6071 140.688 32.8168 141.279 33.0931C141.105 34.4325 139.925 35.3813 138.645 35.3813ZM151.191 27.7717L148.651 34.0419H148.575L145.948 27.7717H143.565L147.511 36.5341L145.26 41.4101H147.569L153.651 27.7717H151.191ZM131.267 37.0259H133.483V22.5616H131.267V37.0259Z" fill="white"/>
<path d="M16.8991 11.0351C16.5509 11.3909 16.3494 11.9449 16.3494 12.6624V38.2526C16.3494 38.9701 16.5509 39.5241 16.8991 39.8799L16.985 39.958L31.6724 25.6238V25.2854L16.985 10.9512L16.8991 11.0351Z" fill="url(#paint2_linear_501_6749)"/>
<path d="M36.5622 30.4041L31.6724 25.6238V25.2854L36.5681 20.5047L36.6777 20.5669L42.4762 23.7881C44.1311 24.7023 44.1311 26.2066 42.4762 27.1265L36.6777 30.3419L36.5622 30.4041Z" fill="url(#paint3_linear_501_6749)"/>
<path d="M36.6767 30.342L31.6708 25.4545L16.8975 39.8797C17.4471 40.4439 18.3434 40.5118 19.3627 39.9477L36.6767 30.342Z" fill="url(#paint4_linear_501_6749)"/>
<path d="M36.6767 20.5671L19.3627 10.9613C18.3434 10.403 17.4471 10.471 16.8975 11.0351L31.6708 25.4545L36.6767 20.5671Z" fill="url(#paint5_linear_501_6749)"/>
<defs>
<linearGradient id="paint0_linear_501_6749" x1="85.3776" y1="51.5067" x2="85.3776" y2="-3.60067e-07" gradientUnits="userSpaceOnUse">
<stop stop-color="#171717"/>
<stop offset="1" stop-color="#666766"/>
</linearGradient>
<linearGradient id="paint1_linear_501_6749" x1="85.3509" y1="51.5067" x2="85.3509" y2="7.84126e-07" gradientUnits="userSpaceOnUse">
<stop stop-color="#171717"/>
<stop offset="1" stop-color="#8E8E8E"/>
</linearGradient>
<linearGradient id="paint2_linear_501_6749" x1="141.966" y1="11.8177" x2="137.047" y2="53.3983" gradientUnits="userSpaceOnUse">
<stop stop-color="#00A0FF"/>
<stop offset="0.0066" stop-color="#00A1FF"/>
<stop offset="0.2601" stop-color="#00BEFF"/>
<stop offset="0.5122" stop-color="#00D2FF"/>
<stop offset="0.7604" stop-color="#00DFFF"/>
<stop offset="1" stop-color="#00E3FF"/>
</linearGradient>
<linearGradient id="paint3_linear_501_6749" x1="164.066" y1="26.0051" x2="-162.818" y2="26.0051" gradientUnits="userSpaceOnUse">
<stop stop-color="#FFE000"/>
<stop offset="0.4087" stop-color="#FFBD00"/>
<stop offset="0.7754" stop-color="#FFA500"/>
<stop offset="1" stop-color="#FF9C00"/>
</linearGradient>
<linearGradient id="paint4_linear_501_6749" x1="134.755" y1="47.3652" x2="104.295" y2="149.729" gradientUnits="userSpaceOnUse">
<stop stop-color="#FF3A44"/>
<stop offset="1" stop-color="#C31162"/>
</linearGradient>
<linearGradient id="paint5_linear_501_6749" x1="13.1775" y1="48.394" x2="24.9338" y2="36.353" gradientUnits="userSpaceOnUse">
<stop stop-color="#32A071"/>
<stop offset="0.0685" stop-color="#2DA771"/>
<stop offset="0.4762" stop-color="#15CF74"/>
<stop offset="0.8009" stop-color="#06E775"/>
<stop offset="1" stop-color="#00F076"/>
</linearGradient>
</defs>
</svg>
