<svg width="232" height="24" viewBox="0 0 232 24" fill="none" xmlns="http://www.w3.org/2000/svg">
<path d="M8.11548e-05 0H23.6766V12H35.5037V24H11.8329V12H0L8.11548e-05 0Z" fill="#16181D"/>
<path fill-rule="evenodd" clip-rule="evenodd" d="M127.272 19.0809L125.258 23.3107H119.364L130.72 0L142.106 23.3107H136.182L134.159 19.0809H127.272ZM128.325 15.0391H133.129L130.72 9.4308L128.325 15.0391Z" fill="#16181D"/>
<path d="M154.143 15.3838V11.3107H165.067C165.169 13.0653 164.995 14.705 164.542 16.2298C164.089 17.7546 163.39 19.1018 162.444 20.2715C161.497 21.4413 160.315 22.3603 158.895 23.0287C157.476 23.6762 155.851 24 154.02 24C152.292 24 150.708 23.7285 149.268 23.1854C147.828 22.6214 146.583 21.8277 145.534 20.8042C144.485 19.7598 143.662 18.5274 143.065 17.1071C142.489 15.6658 142.201 14.0783 142.201 12.3447C142.201 10.611 142.5 9.04441 143.096 7.64493C143.693 6.22457 144.536 5.01308 145.626 4.01047C146.717 3.00786 147.992 2.23502 149.453 1.69193C150.913 1.14886 152.497 0.877316 154.205 0.877316C155.727 0.877316 157.095 1.09664 158.309 1.53528C159.523 1.97392 160.592 2.59011 161.518 3.38384C162.464 4.15668 163.277 5.05486 163.956 6.07835L159.327 8.52221C158.833 7.64493 158.165 6.92431 157.321 6.36034C156.499 5.77548 155.46 5.48305 154.205 5.48305C153.012 5.48305 151.911 5.75459 150.903 6.29767C149.916 6.84075 149.124 7.62404 148.527 8.64754C147.951 9.65015 147.663 10.8825 147.663 12.3447C147.663 13.7859 147.941 15.0392 148.496 16.1045C149.072 17.1488 149.844 17.9635 150.811 18.5483C151.798 19.1123 152.929 19.3943 154.205 19.3943C154.987 19.3943 155.696 19.3003 156.334 19.1123C156.972 18.9034 157.517 18.6214 157.969 18.2663C158.422 17.8904 158.803 17.4622 159.111 16.9817C159.44 16.4804 159.697 15.9478 159.883 15.3838H154.143Z" fill="#16181D"/>
<path d="M182.818 18.9555H192.167V23.3106H177.819V1.37849H192.167V5.73357H182.818V9.65002H191.55V13.9111H182.818V18.9555Z" fill="#16181D"/>
<path d="M196.411 1.37849H201.626V18.7675H210.297V23.3106H196.411V1.37849Z" fill="#16181D"/>
<path fill-rule="evenodd" clip-rule="evenodd" d="M220.428 1.37849H212.714V23.3106H220.428C222.794 23.3106 224.841 22.8615 226.569 21.9633C228.297 21.0651 229.634 19.8014 230.581 18.1722C231.527 16.5221 232 14.5795 232 12.3445C232 10.0887 231.527 8.1461 230.581 6.51686C229.634 4.88762 228.297 3.62391 226.569 2.72574C224.841 1.82757 222.794 1.37849 220.428 1.37849ZM218.083 6.07822V18.6108H220.243C221.066 18.6108 221.858 18.5064 222.619 18.2975C223.401 18.0886 224.08 17.744 224.656 17.2636C225.253 16.7832 225.726 16.1461 226.075 15.3524C226.425 14.5377 226.6 13.5351 226.6 12.3445C226.6 11.1539 226.425 10.1618 226.075 9.36803C225.726 8.55341 225.253 7.90589 224.656 7.42548C224.08 6.94506 223.401 6.60041 222.619 6.39154C221.858 6.18266 221.066 6.07822 220.243 6.07822H218.083Z" fill="#16181D"/>
<path d="M102.019 6.10955V1.37849H118.96L108.746 18.7675H117.849V23.3106H100.538L110.597 6.10955H102.019Z" fill="#16181D"/>
<path d="M89.0532 15.3838V11.3107H99.9767C100.08 13.0653 99.9047 14.705 99.4522 16.2298C98.9996 17.7546 98.3001 19.1018 97.3539 20.2715C96.4076 21.4413 95.2247 22.3603 93.8053 23.0287C92.3858 23.6762 90.7607 24 88.9298 24C87.2018 24 85.6178 23.7285 84.1777 23.1854C82.7377 22.6214 81.4931 21.8277 80.444 20.8042C79.3948 19.7598 78.572 18.5274 77.9754 17.1071C77.3994 15.6658 77.1114 14.0783 77.1114 12.3447C77.1114 10.611 77.4097 9.04441 78.0063 7.64493C78.6028 6.22457 79.4463 5.01308 80.5366 4.01047C81.6269 3.00786 82.9023 2.23502 84.3629 1.69193C85.8235 1.14886 87.4075 0.877316 89.1149 0.877316C90.6372 0.877316 92.0052 1.09664 93.219 1.53528C94.4327 1.97392 95.5024 2.59011 96.4281 3.38384C97.3744 4.15668 98.187 5.05486 98.8659 6.07835L94.2373 8.52221C93.7435 7.64493 93.075 6.92431 92.2315 6.36034C91.4087 5.77548 90.3698 5.48305 89.1149 5.48305C87.9218 5.48305 86.8212 5.75459 85.8132 6.29767C84.8257 6.84075 84.0337 7.62404 83.4372 8.64754C82.8612 9.65015 82.5732 10.8825 82.5732 12.3447C82.5732 13.7859 82.8509 15.0392 83.4063 16.1045C83.9823 17.1488 84.7538 17.9635 85.7206 18.5483C86.7081 19.1123 87.8395 19.3943 89.1149 19.3943C89.8966 19.3943 90.6064 19.3003 91.2441 19.1123C91.8818 18.9034 92.4269 18.6214 92.8795 18.2663C93.3321 17.8904 93.7127 17.4622 94.0212 16.9817C94.3504 16.4804 94.6075 15.9478 94.7927 15.3838H89.0532Z" fill="#16181D"/>
<path d="M68.4617 1.37849H73.7692V23.3106H68.4617V1.37849Z" fill="#16181D"/>
<path d="M48.8021 6.10955V1.37849H65.7428L55.529 18.7675H64.632V23.3106H47.321L57.3805 6.10955H48.8021Z" fill="#16181D"/>
</svg>
