<svg width="40" height="40" viewBox="0 0 40 40" fill="none" xmlns="http://www.w3.org/2000/svg">
<path d="M37.9458 27.0677C37.9458 28.0231 37.7287 28.8699 37.2944 29.6081C36.9035 30.303 36.3824 30.8892 35.731 31.3669C35.0796 31.8446 34.3631 32.2137 33.5814 32.4743C32.8432 32.6914 32.1483 32.8 31.4969 32.8C30.4981 32.8 29.4776 32.5829 28.4354 32.1486C27.4365 31.6709 26.5246 30.9978 25.6995 30.1293C24.8744 29.2607 24.2013 28.2185 23.6801 27.0025C23.159 25.7866 22.8985 24.4404 22.8985 22.9639C22.8985 20.4017 23.3761 18.2086 24.3315 16.3847C25.3303 14.5608 26.5029 13.0409 27.8491 11.8249C29.2387 10.5656 30.6501 9.58846 32.0832 8.89364C33.5597 8.15538 34.7756 7.63426 35.731 7.33028V9.41476C34.8625 9.93588 33.9288 10.5004 32.93 11.1084C31.9746 11.7164 31.0844 12.4329 30.2593 13.258C29.4776 14.0831 28.8262 15.0168 28.3051 16.059C27.784 17.1013 27.5234 18.2738 27.5234 19.5766C27.5234 20.228 27.5885 20.7491 27.7188 21.1399C27.8491 21.5308 28.0011 21.8348 28.1748 22.0519C28.3919 22.269 28.5873 22.421 28.7611 22.5079C28.9782 22.5947 29.1519 22.6382 29.2822 22.6382C29.7599 22.6382 30.3461 22.5079 31.041 22.2473C31.7358 21.9433 32.3872 21.7913 32.9951 21.7913C33.5597 21.7913 34.1242 21.9216 34.6888 22.1822C35.2968 22.3993 35.8396 22.7467 36.3173 23.2244C36.795 23.6587 37.1858 24.2015 37.4898 24.8529C37.7938 25.5043 37.9458 26.2426 37.9458 27.0677ZM17.6303 26.9374C17.6303 27.8928 17.4131 28.7396 16.9789 29.4779C16.588 30.2161 16.0669 30.8241 15.4155 31.3018C14.7641 31.736 14.0476 32.0835 13.2659 32.344C12.5276 32.5612 11.8111 32.6697 11.1163 32.6697C10.1175 32.6697 9.11864 32.4526 8.11983 32.0183C7.12102 31.5406 6.20906 30.8892 5.38395 30.0641C4.55884 29.1956 3.88573 28.1534 3.36461 26.9374C2.88692 25.7215 2.64807 24.3752 2.64807 22.8987C2.64807 20.3366 3.12576 18.1435 4.08115 16.3196C5.07996 14.4522 6.25248 12.9106 7.59871 11.6947C8.98836 10.4353 10.3997 9.45818 11.8328 8.76336C13.2659 8.0251 14.4601 7.50398 15.4155 7.2V9.34962C14.547 9.87074 13.6133 10.4353 12.6145 11.0433C11.6591 11.6512 10.7689 12.3678 9.94375 13.1929C9.16207 14.018 8.48895 14.9517 7.92441 15.9939C7.40329 16.9927 7.14273 18.1652 7.14273 19.5114C7.14273 20.7274 7.38157 21.5308 7.85927 21.9216C8.38039 22.3125 8.77123 22.5079 9.03179 22.5079C9.46605 22.5079 10.0306 22.3776 10.7254 22.117C11.4203 21.8565 12.0717 21.7262 12.6796 21.7262C13.2442 21.7262 13.8087 21.8565 14.3733 22.117C14.9812 22.3342 15.5241 22.6816 16.0018 23.1593C16.4795 23.5936 16.8703 24.1364 17.1743 24.7878C17.4783 25.3958 17.6303 26.1123 17.6303 26.9374Z" fill="#0F79FC"/>
</svg>
